<?xml version="1.0"?>
<svg version="1.1" xmlns="http://www.w3.org/2000/svg" xmlns:xlink="http://www.w3.org/1999/xlink" width="30" height="30">
    <desc iVinci="yes" version="4.6" gridStep="20" showGrid="no" snapToGrid="no" codePlatform="0"/>
    <g id="Layer1" name="Layer 1" opacity="1">
        <g id="Shape1">
            <desc shapeID="1" type="0" basicInfo-basicType="0" basicInfo-roundedRectRadius="12" basicInfo-polygonSides="6" basicInfo-starPoints="5" bounding="rect(-12.7573,-5.88149,25.5146,11.7629)" text="" font-familyName="" font-pixelSize="20" font-bold="0" font-underline="0" font-alignment="1" strokeStyle="0" markerStart="0" markerEnd="0" shadowEnabled="0" shadowOffsetX="0" shadowOffsetY="2" shadowBlur="4" shadowOpacity="160" blurEnabled="0" blurRadius="4" transform="matrix(0.281756,0,0,0.279625,13.4759,10.9604)" pers-center="0,0" pers-size="0,0" pers-start="0,0" pers-end="0,0" locked="0" mesh="" flag=""/>
            <path id="shapePath1" d="M11.5107,12.605 C11.5107,12.605 15.4066,12.6033 15.4153,12.6033 C16.3172,12.6033 17.0551,11.9479 17.0701,11.0497 C17.0844,10.1426 16.3552,9.33005 15.4412,9.31579 L11.5626,9.32026 C10.6471,9.31159 9.89627,10.0297 9.88162,10.9365 C9.86725,11.8433 10.5967,12.5905 11.5107,12.605 Z" style="stroke:none;fill-rule:evenodd;fill:#26b0cd;fill-opacity:1;"/>
        </g>
        <g id="Shape2">
            <desc shapeID="2" type="0" basicInfo-basicType="0" basicInfo-roundedRectRadius="12" basicInfo-polygonSides="6" basicInfo-starPoints="5" bounding="rect(-19.6395,-5.87414,39.2789,11.7482)" text="" font-familyName="" font-pixelSize="20" font-bold="0" font-underline="0" font-alignment="1" strokeStyle="0" markerStart="0" markerEnd="0" shadowEnabled="0" shadowOffsetX="0" shadowOffsetY="2" shadowBlur="4" shadowOpacity="160" blurEnabled="0" blurRadius="4" transform="matrix(0.281756,0,0,0.279625,14.9748,18.4895)" pers-center="0,0" pers-size="0,0" pers-start="0,0" pers-end="0,0" locked="0" mesh="" flag=""/>
            <path id="shapePath2" d="M18.853,16.8469 L11.0965,16.8469 C10.1825,16.8469 9.44123,17.5826 9.44123,18.4897 C9.44123,19.3968 10.1825,20.132 11.0965,20.132 L18.853,20.132 C19.767,20.132 20.5083,19.3968 20.5083,18.4897 C20.5083,17.5826 19.767,16.8469 18.853,16.8469 Z" style="stroke:none;fill-rule:evenodd;fill:#26b0cd;fill-opacity:1;"/>
        </g>
        <g id="Shape3">
            <desc shapeID="3" type="0" basicInfo-basicType="0" basicInfo-roundedRectRadius="12" basicInfo-polygonSides="6" basicInfo-starPoints="5" bounding="rect(-48.875,-48.875,97.75,97.7501)" text="" font-familyName="" font-pixelSize="20" font-bold="0" font-underline="0" font-alignment="1" strokeStyle="0" markerStart="0" markerEnd="0" shadowEnabled="0" shadowOffsetX="0" shadowOffsetY="2" shadowBlur="4" shadowOpacity="160" blurEnabled="0" blurRadius="4" transform="matrix(0.281756,0,0,0.279625,15,15)" pers-center="0,0" pers-size="0,0" pers-start="0,0" pers-end="0,0" locked="0" mesh="" flag=""/>
            <path id="shapePath3" d="M15,1.33333 C7.39483,1.33333 1.22916,7.45208 1.22916,15 C1.22916,22.5479 7.39483,28.6667 15,28.6667 C22.6052,28.6667 28.7708,22.5479 28.7708,15 C28.7708,7.45208 22.6052,1.33333 15,1.33333 M22.8616,22.8703 C21.7976,23.9578 20.2953,24.5402 18.5169,24.5548 L18.5003,24.5548 L11.5662,24.5548 C11.5226,24.5553 11.4789,24.5556 11.4358,24.5556 C9.44264,24.5556 7.90425,23.998 6.86372,22.8983 C5.82292,21.798 5.48932,20.3101 5.48932,18.2428 C5.49129,18.1002 5.47748,17.9615 5.48622,17.8245 L5.48988,10.5568 C5.57582,8.75458 6.38727,7.63999 6.99812,7.00189 C7.98511,5.97035 9.38037,5.44717 11.1459,5.44717 L11.1949,5.44717 L15.734,5.44382 L15.7762,5.44494 C18.744,5.52659 20.8825,7.57652 20.9034,10.4284 C20.9808,11.2849 20.9327,12.0771 20.7644,12.7918 C21.7621,12.8212 22.9931,12.9945 23.7908,14.0174 C24.4952,14.9206 24.4997,15.9476 24.5056,17.3687 C24.5073,17.6595 24.5155,18.4 24.5155,18.4 C24.4963,20.2396 23.9243,21.7859 22.8616,22.8703 Z" style="stroke:none;fill-rule:evenodd;fill:#26b0cd;fill-opacity:1;"/>
        </g>
    </g>
</svg>
