<?xml version="1.0"?>
<svg version="1.1" xmlns="http://www.w3.org/2000/svg" xmlns:xlink="http://www.w3.org/1999/xlink" width="30" height="30">
    <desc iVinci="yes" version="4.6" gridStep="20" showGrid="no" snapToGrid="no" codePlatform="0"/>
    <g id="Layer1" name="Layer 1" opacity="1">
        <g id="Shape1">
            <desc shapeID="1" type="0" basicInfo-basicType="0" basicInfo-roundedRectRadius="12" basicInfo-polygonSides="6" basicInfo-starPoints="5" bounding="rect(-306,-306,612,612)" text="" font-familyName="" font-pixelSize="20" font-bold="0" font-underline="0" font-alignment="1" strokeStyle="0" markerStart="0" markerEnd="0" shadowEnabled="0" shadowOffsetX="0" shadowOffsetY="2" shadowBlur="4" shadowOpacity="160" blurEnabled="0" blurRadius="4" transform="matrix(0.0485606,0,0,0.0485606,15,15)" pers-center="0,0" pers-size="0,0" pers-start="0,0" pers-end="0,0" locked="0" mesh="" flag=""/>
            <path id="shapePath1" d="M15,29.8595 C13.6329,29.8595 12.3154,29.6812 11.0474,29.3246 C9.77935,28.9678 8.59554,28.4677 7.49593,27.8238 C6.39633,27.1799 5.39578,26.4072 4.4943,25.5057 C3.59282,24.6043 2.82013,23.6037 2.17621,22.5041 C1.5323,21.4044 1.03203,20.2207 0.675401,18.9526 C0.318771,17.6846 0.140457,16.3671 0.140457,15 C0.140457,13.6329 0.318771,12.3154 0.675401,11.0474 C1.03203,9.77935 1.5323,8.59554 2.17621,7.49593 C2.82013,6.39633 3.59282,5.39578 4.4943,4.4943 C5.39578,3.59282 6.39633,2.82013 7.49593,2.17621 C8.59554,1.5323 9.77935,1.03203 11.0474,0.675401 C12.3154,0.318771 13.6329,0.140457 15,0.140457 C17.0407,0.140457 18.9675,0.531759 20.7804,1.31436 C22.5932,2.09696 24.1683,3.15694 25.5057,4.4943 C26.8431,5.83166 27.903,7.40677 28.6856,9.21964 C29.4682,11.0325 29.8595,12.9593 29.8595,15 C29.8595,16.3671 29.6812,17.6846 29.3246,18.9526 C28.9678,20.2205 28.4677,21.4043 27.8238,22.5041 C27.1799,23.6037 26.4072,24.6042 25.5057,25.5057 C24.6043,26.4072 23.6037,27.18 22.5041,27.8238 C21.4044,28.4677 20.2207,28.968 18.9525,29.3246 C17.6846,29.6812 16.3671,29.8595 15,29.8595 M22.1623,8.87787 L8.07545,8.87787 C7.93676,8.87787 7.81789,8.92245 7.71882,9.01161 C7.61976,9.10076 7.57023,9.22459 7.57023,9.38309 L7.57023,10.9582 C7.57023,11.0375 7.59995,11.0771 7.65939,11.0771 L15.0594,15.2972 L15.119,15.3269 C15.1585,15.3269 15.1884,15.317 15.2082,15.2972 L22.3705,11.0771 C22.41,11.0573 22.4398,11.0474 22.4596,11.0474 C22.4793,11.0474 22.5092,11.0375 22.5488,11.0176 C22.628,11.0176 22.6677,10.978 22.6677,10.8988 L22.6677,9.38309 C22.6677,9.22459 22.6181,9.10076 22.5189,9.01161 C22.4198,8.92245 22.301,8.87787 22.1623,8.87787 M12.0578,15.208 C12.0776,15.1882 12.0875,15.1585 12.0875,15.1189 C12.0875,15.0593 12.0677,15.0297 12.0281,15.0297 L7.77826,12.5927 C7.71882,12.5729 7.66929,12.5729 7.62967,12.5927 C7.59004,12.5927 7.57023,12.6224 7.57023,12.6819 L7.57023,19.0715 C7.57023,19.1311 7.59995,19.1705 7.65939,19.1903 L7.71882,19.1903 C7.75845,19.1903 7.77826,19.1804 7.77826,19.1606 L12.0578,15.208 M17.2289,15.6835 C17.2091,15.624 17.1594,15.6142 17.0802,15.6538 L15.4456,16.6048 C15.2475,16.7237 15.0396,16.7237 14.8215,16.6048 L13.395,15.8026 C13.3356,15.7629 13.2861,15.7629 13.2464,15.8026 L7.80784,20.8548 C7.78802,20.8745 7.77812,20.9142 7.77812,20.9735 C7.77812,20.9934 7.79793,21.0231 7.83756,21.0627 C7.95643,21.1023 8.03568,21.1223 8.07531,21.1223 L22.0136,21.1223 C22.0532,21.1223 22.093,21.1025 22.1325,21.0627 C22.1325,20.9834 22.1226,20.9341 22.1028,20.9141 L17.2289,15.6835 M22.5784,12.4739 L22.4596,12.4739 L18.4178,14.8811 C18.3784,14.8811 18.3584,14.9108 18.3584,14.9703 C18.3386,14.9901 18.3485,15.0198 18.388,15.0593 L22.4298,19.4281 C22.4694,19.4678 22.4991,19.4877 22.5189,19.4877 L22.5784,19.4877 C22.638,19.4281 22.6677,19.3887 22.6677,19.3689 L22.6677,12.5928 C22.6675,12.5531 22.6378,12.5135 22.5784,12.4739 Z" style="stroke:none;fill-rule:nonzero;fill:#26b0cd;fill-opacity:1;"/>
        </g>
    </g>
</svg>
