<?xml version="1.0"?>
<svg version="1.1" xmlns="http://www.w3.org/2000/svg" xmlns:xlink="http://www.w3.org/1999/xlink" width="245" height="45">
    <desc iVinci="yes" version="4.6" gridStep="20" showGrid="no" snapToGrid="no" codePlatform="0"/>
    <g id="Layer1" name="Layer 1" opacity="1">
        <g id="Shape1">
            <desc shapeID="1" type="0" basicInfo-basicType="0" basicInfo-roundedRectRadius="12" basicInfo-polygonSides="6" basicInfo-starPoints="5" bounding="rect(-29.0001,-28.4999,58.0002,56.9998)" text="" font-familyName="Nexa Light" font-pixelSize="20" font-bold="0" font-underline="0" font-alignment="1" strokeStyle="0" markerStart="0" markerEnd="0" shadowEnabled="0" shadowOffsetX="0" shadowOffsetY="2" shadowBlur="4" shadowOpacity="160" blurEnabled="0" blurRadius="4" transform="matrix(0.676344,0,0,0.657165,23.6757,22.5779)" pers-center="0,0" pers-size="0,0" pers-start="0,0" pers-end="0,0" locked="0" mesh="" flag=""/>
            <path id="shapePath1" d="M4.06163,22.5779 C4.06163,12.2341 12.8432,3.84875 23.6757,3.84875 C34.5082,3.84875 43.2897,12.2341 43.2897,22.5779 C43.2897,32.9217 34.5082,41.307 23.6757,41.307 C12.8432,41.307 4.06163,32.9217 4.06163,22.5779 Z" style="stroke:none;fill-rule:evenodd;fill:#ff7979;fill-opacity:1;"/>
        </g>
        <g id="Shape2">
            <desc shapeID="2" type="2" basicInfo-basicType="0" basicInfo-roundedRectRadius="12" basicInfo-polygonSides="6" basicInfo-starPoints="5" bounding="rect(-93.9544,-11.0077,187.909,22.0153)" text="ASSISTA AO VÃDEO" font-familyName="Nexa Bold" font-pixelSize="20" font-bold="0" font-underline="0" font-alignment="0" strokeStyle="0" markerStart="0" markerEnd="0" shadowEnabled="0" shadowOffsetX="0" shadowOffsetY="2" shadowBlur="4" shadowOpacity="160" blurEnabled="0" blurRadius="4" transform="matrix(1,0,0,1,144.045,25.5944)" pers-center="0,0" pers-size="0,0" pers-start="0,0" pers-end="0,0" locked="0" mesh="" flag=""/>
            <path id="shapePath2" d="M62.192,30.5944 L65.072,30.5944 L58.792,16.5944 L55.912,16.5944 L49.632,30.5944 L52.492,30.5944 L53.692,27.9545 L61.012,27.9545 L62.192,30.5944 M59.952,25.4944 L54.752,25.4944 L57.352,19.5345 L59.952,25.4944 M76.7807,18.8945 C75.7207,16.7345 73.4607,16.1145 71.2807,16.1145 C68.7007,16.1344 65.8607,17.3144 65.8607,20.1945 C65.8607,23.3344 68.5007,24.0944 71.3607,24.4345 C73.2207,24.6345 74.6007,25.1744 74.6007,26.4944 C74.6007,28.0145 73.0407,28.5944 71.3807,28.5944 C69.6807,28.5944 68.0607,27.9144 67.4407,26.3745 L65.2407,27.5145 C66.2807,30.0744 68.4807,30.9545 71.3407,30.9545 C74.4607,30.9545 77.2207,29.6145 77.2207,26.4944 C77.2207,23.1544 74.5007,22.3944 71.5807,22.0345 C69.9007,21.8344 68.4607,21.4944 68.4607,20.2745 C68.4607,19.2344 69.4007,18.4144 71.3607,18.4144 C72.8807,18.4144 74.2007,19.1744 74.6807,19.9744 L76.7807,18.8945 M89.9995,18.8945 C88.9395,16.7345 86.6795,16.1145 84.4995,16.1145 C81.9195,16.1344 79.0795,17.3144 79.0795,20.1945 C79.0795,23.3344 81.7195,24.0944 84.5795,24.4345 C86.4395,24.6345 87.8195,25.1744 87.8195,26.4944 C87.8195,28.0145 86.2595,28.5944 84.5995,28.5944 C82.8995,28.5944 81.2795,27.9144 80.6595,26.3745 L78.4595,27.5145 C79.4995,30.0744 81.6995,30.9545 84.5595,30.9545 C87.6795,30.9545 90.4395,29.6145 90.4395,26.4944 C90.4395,23.1544 87.7195,22.3944 84.7995,22.0345 C83.1195,21.8344 81.6795,21.4944 81.6795,20.2745 C81.6795,19.2344 82.6195,18.4144 84.5795,18.4144 C86.0995,18.4144 87.4195,19.1744 87.8995,19.9744 L89.9995,18.8945 M95.1182,30.5944 L95.1182,16.5944 L92.4982,16.5944 L92.4982,30.5944 L95.1182,30.5944 M108.734,18.8945 C107.674,16.7345 105.414,16.1145 103.234,16.1145 C100.654,16.1344 97.8139,17.3144 97.8139,20.1945 C97.8139,23.3344 100.454,24.0944 103.314,24.4345 C105.174,24.6345 106.554,25.1744 106.554,26.4944 C106.554,28.0145 104.994,28.5944 103.334,28.5944 C101.634,28.5944 100.014,27.9144 99.3939,26.3745 L97.1939,27.5145 C98.2339,30.0744 100.434,30.9545 103.294,30.9545 C106.414,30.9545 109.174,29.6145 109.174,26.4944 C109.174,23.1544 106.454,22.3944 103.534,22.0345 C101.854,21.8344 100.414,21.4944 100.414,20.2745 C100.414,19.2344 101.354,18.4144 103.314,18.4144 C104.834,18.4144 106.154,19.1744 106.634,19.9744 L108.734,18.8945 M114.833,30.5944 L117.473,30.5944 L117.473,18.9944 L121.913,18.9944 L121.913,16.5944 C117.853,16.5944 114.433,16.5944 110.393,16.5944 L110.393,18.9944 L114.833,18.9944 L114.833,30.5944 M134.629,30.5944 L137.509,30.5944 L131.229,16.5944 L128.349,16.5944 L122.069,30.5944 L124.929,30.5944 L126.129,27.9545 L133.449,27.9545 L134.629,30.5944 M132.389,25.4944 L127.189,25.4944 L129.789,19.5345 L132.389,25.4944 M153.629,30.5944 L156.509,30.5944 L150.229,16.5944 L147.349,16.5944 L141.069,30.5944 L143.929,30.5944 L145.129,27.9545 L152.449,27.9545 L153.629,30.5944 M151.389,25.4944 L146.189,25.4944 L148.789,19.5345 L151.389,25.4944 M163.449,16.3144 C158.609,16.3144 156.249,20.0145 156.249,23.6945 C156.249,27.3745 158.529,30.9144 163.449,30.9144 C168.369,30.9144 170.589,27.2945 170.629,23.6744 C170.669,20.0145 168.269,16.3144 163.449,16.3144 M163.449,18.7145 C166.749,18.7145 168.069,21.3545 168.029,23.7145 C167.989,26.0145 166.749,28.4944 163.449,28.4944 C160.149,28.4944 158.909,26.0345 158.849,23.7344 C158.789,21.3745 160.149,18.7145 163.449,18.7145 M190.008,16.5944 L187.048,16.5944 L182.808,27.4944 L178.588,16.5944 L175.628,16.5944 L181.448,30.6544 L184.188,30.6544 L190.008,16.5944 M191.639,30.5944 L191.639,16.5944 L194.259,16.5944 L194.259,30.5944 L191.639,30.5944 M196.139,12.5744 L193.939,15.3145 L191.779,15.3145 L191.779,15.1945 L193.259,12.4745 L196.139,12.4745 L196.139,12.5744 M202.048,16.5944 C200.328,16.5944 198.268,16.5944 196.548,16.5944 L196.548,30.5944 C198.268,30.5944 200.328,30.5944 202.048,30.5944 C206.948,30.5944 209.108,27.0145 209.048,23.4744 C208.988,20.0145 206.848,16.5944 202.048,16.5944 M199.168,19.0944 L202.048,19.0944 C205.088,19.0944 206.368,21.2745 206.428,23.4545 C206.488,25.7344 205.228,28.0545 202.048,28.0545 L199.168,28.0545 L199.168,19.0944 M221.215,27.9944 L213.355,27.9944 L213.355,24.8344 L220.935,24.8344 L220.935,22.3745 L213.355,22.3745 L213.355,19.1544 L221.215,19.1544 L221.215,16.5944 L210.735,16.5944 C210.735,21.2544 210.735,25.9345 210.735,30.5944 L221.215,30.5944 L221.215,27.9944 M229.824,16.3144 C224.984,16.3144 222.624,20.0145 222.624,23.6945 C222.624,27.3745 224.904,30.9144 229.824,30.9144 C234.744,30.9144 236.964,27.2945 237.004,23.6744 C237.044,20.0145 234.644,16.3144 229.824,16.3144 M229.824,18.7145 C233.124,18.7145 234.444,21.3545 234.404,23.7145 C234.364,26.0145 233.124,28.4944 229.824,28.4944 C226.524,28.4944 225.284,26.0345 225.224,23.7344 C225.164,21.3745 226.524,18.7145 229.824,18.7145 Z" style="stroke:none;fill-rule:nonzero;fill:#ff7979;fill-opacity:1;"/>
        </g>
        <g id="Shape3">
            <desc shapeID="3" type="0" basicInfo-basicType="0" basicInfo-roundedRectRadius="12" basicInfo-polygonSides="6" basicInfo-starPoints="5" bounding="rect(-26.1501,-21.0234,52.3003,42.0469)" text="" font-familyName="Nexa Light" font-pixelSize="20" font-bold="0" font-underline="0" font-alignment="1" strokeStyle="0" markerStart="0" markerEnd="0" shadowEnabled="0" shadowOffsetX="0" shadowOffsetY="2" shadowBlur="4" shadowOpacity="160" blurEnabled="0" blurRadius="4" transform="matrix(0.00322198,0.385397,-0.396648,0.0031306,26.2275,23.2952)" pers-center="0,0" pers-size="0,0" pers-start="0,0" pers-end="0,0" locked="0" mesh="" flag=""/>
            <path id="shapePath3" d="M34.5658,23.1619 L26.4314,28.2993 L18.2969,33.4367 L17.8902,23.557 L17.8902,13.2822 L26.0246,18.4196 L34.5658,23.1619 Z" style="stroke:none;fill-rule:evenodd;fill:#ffffff;fill-opacity:1;"/>
        </g>
    </g>
</svg>
