<?xml version="1.0"?>
<svg version="1.1" xmlns="http://www.w3.org/2000/svg" xmlns:xlink="http://www.w3.org/1999/xlink" width="30" height="30">
    <desc iVinci="yes" version="4.6" gridStep="20" showGrid="no" snapToGrid="no" codePlatform="0"/>
    <g id="Layer1" name="Layer 1" opacity="1">
        <g id="Shape1">
            <desc shapeID="1" type="0" basicInfo-basicType="0" basicInfo-roundedRectRadius="12" basicInfo-polygonSides="6" basicInfo-starPoints="5" bounding="rect(-8.00004,-8.00004,16,16)" text="" font-familyName="" font-pixelSize="20" font-bold="0" font-underline="0" font-alignment="1" strokeStyle="0" markerStart="0" markerEnd="0" shadowEnabled="0" shadowOffsetX="0" shadowOffsetY="2" shadowBlur="4" shadowOpacity="160" blurEnabled="0" blurRadius="4" transform="matrix(1.84583,0,0,1.83333,15.0001,15.0001)" pers-center="0,0" pers-size="0,0" pers-start="0,0" pers-end="0,0" locked="0" mesh="" flag=""/>
            <path id="shapePath1" d="M15,0.333333 C6.84511,0.333333 0.233334,6.90033 0.233334,15 C0.233334,23.0997 6.84511,29.6667 15,29.6667 C23.1549,29.6667 29.7667,23.0997 29.7667,15 C29.7667,6.8985 23.1549,0.333333 15,0.333333 M22.3464,11.7073 L22.3575,12.1748 C22.3575,16.9488 18.7009,22.4488 12.0134,22.4488 C9.96087,22.4488 8.05044,21.8512 6.44087,20.8263 C6.72513,20.8593 7.01492,20.8777 7.30841,20.8777 C9.01212,20.8777 10.5792,20.3002 11.8233,19.3322 C10.2322,19.3028 8.89029,18.2578 8.42699,16.8242 C8.65033,16.8663 8.87553,16.8865 9.11179,16.8865 C9.44404,16.8865 9.76522,16.8443 10.0698,16.7618 C8.40668,16.4282 7.15336,14.9707 7.15336,13.2217 L7.15336,13.1758 C7.64435,13.4472 8.20364,13.6085 8.79985,13.6287 C7.82525,12.9815 7.1829,11.876 7.1829,10.6238 C7.1829,9.962 7.36194,9.34233 7.67389,8.80883 C9.46619,10.9942 12.1463,12.4315 15.168,12.5818 C15.1052,12.3178 15.0738,12.041 15.0738,11.7587 C15.0738,9.76583 16.7019,8.14883 18.7101,8.14883 C19.7549,8.14883 20.6999,8.587 21.3644,9.28917 C22.1914,9.126 22.9703,8.82533 23.6736,8.41283 C23.4022,9.25617 22.8263,9.96383 22.0751,10.4112 C22.8079,10.325 23.5111,10.1288 24.1627,9.84283 C23.6754,10.5652 23.0571,11.2013 22.3464,11.7073 Z" style="stroke:none;fill-rule:evenodd;fill:#26b0cd;fill-opacity:1;"/>
        </g>
    </g>
</svg>
